<svg width="184" height="318" viewBox="0 0 184 318" fill="none" xmlns="http://www.w3.org/2000/svg">
<path d="M31.5 175C31.5 162.021 42.0213 151.5 55 151.5H120C132.979 151.5 143.5 162.021 143.5 175V259C143.5 271.979 132.979 282.5 120 282.5H55C42.0213 282.5 31.5 271.979 31.5 259V175Z" fill="#FFBCCD" stroke="black"/>
<path d="M56.8429 49.4661C56.8514 49.4728 56.8595 49.4792 56.8672 49.4854L73.4426 107.284C73.3087 107.14 73.1661 106.986 73.0153 106.823C71.8488 105.563 70.1894 103.747 68.2193 101.524C64.2785 97.0767 59.0976 91.0044 54.1323 84.4991C49.164 77.9899 44.4252 71.0649 41.3573 64.9101C39.8231 61.832 38.7169 58.9664 38.2029 56.4548C37.6877 53.9373 37.7791 51.8326 38.5668 50.2289C39.9797 47.3556 41.8115 45.9234 43.7327 45.3355C45.673 44.7417 47.7772 44.9871 49.7563 45.613C51.7322 46.2378 53.5407 47.2287 54.8613 48.0697C55.52 48.4892 56.0534 48.869 56.4213 49.1431C56.6051 49.2801 56.7473 49.3905 56.8429 49.4661Z" fill="#7DCFB6" stroke="black"/>
<path d="M107.645 154.796L133.325 94.5281C133.44 94.4838 133.605 94.4216 133.815 94.3477C134.252 94.1934 134.88 93.9882 135.637 93.7864C137.156 93.3815 139.173 92.9958 141.209 93.05C143.246 93.1044 145.253 93.5977 146.808 94.9018C148.352 96.1968 149.522 98.3521 149.774 101.881C149.894 103.573 149.343 105.7 148.224 108.164C147.109 110.618 145.454 113.357 143.426 116.255C139.37 122.051 133.858 128.435 128.301 134.379C122.747 140.321 117.159 145.811 112.959 149.817C110.859 151.819 109.107 153.45 107.879 154.58C107.799 154.654 107.721 154.726 107.645 154.796Z" fill="#7DCFB6" stroke="black"/>
<path d="M106.286 156.71C100.671 157.522 93.9198 157.998 86.6518 157.998C79.7627 157.998 73.3214 157.578 67.9135 156.85C55.0998 145.782 23.8923 116.416 35.4315 101.902C49.8297 83.7727 74.527 109.159 74.527 109.159C74.527 109.159 45.3862 36.3623 60.8178 20.1946C76.2493 4.02685 88.3397 32.7477 88.3397 32.7477C88.3397 32.7477 96.1243 -2.10958 117.033 1.22483C136.977 4.41915 106.079 85.2577 103.186 92.7112C104.667 89.1245 113.623 69.3422 131.086 71.1635C147.62 72.8727 115.379 138.748 106.286 156.71Z" fill="#B6E9D7" stroke="black" stroke-miterlimit="10" stroke-linecap="round"/>
<path d="M116.998 1.19678C116.998 1.19678 87.513 67.717 86.6519 157.998" stroke="black" stroke-miterlimit="10" stroke-linecap="round"/>
<path d="M88.3052 32.7195C89.8897 39.9487 95.9176 72.1441 92.852 88.592" stroke="black" stroke-miterlimit="10" stroke-linecap="round"/>
<path d="M131.052 71.1355C131.052 71.1355 97.4333 106.329 93.6787 157.83" stroke="black" stroke-miterlimit="10" stroke-linecap="round"/>
<path d="M38.7039 98.5674C38.7039 98.5674 78.8672 119.274 79.5561 157.858" stroke="black" stroke-miterlimit="10" stroke-linecap="round"/>
<path d="M52.792 88.7883C56.6728 88.7883 59.8189 86.229 59.8189 83.0721C59.8189 79.9151 56.6728 77.356 52.792 77.356C48.9112 77.356 45.7651 79.9151 45.7651 83.0721C45.7651 86.229 48.9112 88.7883 52.792 88.7883Z" fill="#FFB238" stroke="black" stroke-miterlimit="10"/>
<path d="M36.5338 80.158C38.322 80.158 39.7717 78.9788 39.7717 77.5241C39.7717 76.0694 38.322 74.8901 36.5338 74.8901C34.7455 74.8901 33.2959 76.0694 33.2959 77.5241C33.2959 78.9788 34.7455 80.158 36.5338 80.158Z" fill="#FFB238" stroke="black" stroke-miterlimit="10"/>
<path d="M41.1838 146.398C42.972 146.398 44.4217 145.219 44.4217 143.764C44.4217 142.31 42.972 141.13 41.1838 141.13C39.3956 141.13 37.9459 142.31 37.9459 143.764C37.9459 145.219 39.3956 146.398 41.1838 146.398Z" fill="#FFB238" stroke="black" stroke-miterlimit="10"/>
<path d="M127.366 65.027C131.247 65.027 134.393 62.4678 134.393 59.3109C134.393 56.154 131.247 53.5947 127.366 53.5947C123.485 53.5947 120.339 56.154 120.339 59.3109C120.339 62.4678 123.485 65.027 127.366 65.027Z" fill="#FFB238" stroke="black" stroke-miterlimit="10"/>
<path d="M129.433 43.8997C131.221 43.8997 132.671 42.7204 132.671 41.2657C132.671 39.811 131.221 38.6318 129.433 38.6318C127.645 38.6318 126.195 39.811 126.195 41.2657C126.195 42.7204 127.645 43.8997 129.433 43.8997Z" fill="#FFB238" stroke="black" stroke-miterlimit="10"/>
<path d="M141.179 65.0271C142.967 65.0271 144.417 63.8479 144.417 62.3932C144.417 60.9386 142.967 59.7593 141.179 59.7593C139.391 59.7593 137.941 60.9386 137.941 62.3932C137.941 63.8479 139.391 65.0271 141.179 65.0271Z" fill="#FFB238" stroke="black" stroke-miterlimit="10"/>
<path d="M107.1 158.219C94.4483 163.95 77.5002 161.379 67.373 158.438C66.0648 158.058 66.1703 156.295 67.5 156C81.9 160.4 99.8333 157.833 107 156C108.008 156.403 108.089 157.771 107.1 158.219Z" fill="black" stroke="black"/>
<path d="M40.943 289.321L40.9389 289.325C39.0526 291.093 37.9111 294.253 37.9111 296.901C37.9111 299.562 39.0734 302.237 40.9324 304.245C42.7935 306.255 45.3851 307.629 48.2714 307.629H183.428C183.183 309.479 181.597 310.934 179.656 310.934H15.8942C11.6424 310.934 7.78974 309.326 5.01173 306.762C2.23463 304.198 0.5 300.648 0.5 296.717C0.5 288.897 7.34034 282.5 15.8942 282.5H179.656C181.738 282.5 183.461 284.192 183.461 286.305V286.577H48.2747C45.3868 286.54 42.8004 287.618 40.943 289.321L40.943 289.321Z" fill="#7DCFB6" stroke="black"/>
<path d="M174.138 287.041V306.761H183.925V308.417H47.7934C46.285 308.417 44.8132 308.123 43.4887 307.571C42.0538 306.982 40.7293 306.136 39.6623 305.032C37.5652 302.935 36.2775 300.065 36.2775 296.901C36.2775 290.536 41.4284 285.385 47.7934 285.385H183.925V287.041H174.138Z" fill="black"/>
<path d="M65.8368 301.022V316.968H55.468V303.119C55.468 299.423 52.4866 296.401 48.7501 296.401H44.1727V295.304H60.1189C63.2993 295.304 65.8368 297.874 65.8368 301.022Z" fill="#FFB238" stroke="black"/>
</svg>
